<svg width="99" height="28" viewBox="0 0 99 28" xmlns="http://www.w3.org/2000/svg"><title>AF7BC4BA-51C9-45B4-8E68-A0386CEAC458</title><path d="M1.196 17.788s1.718 2.33 4.754 2.33c1.718 0 3.251-.828 3.251-2.453 0-3.374-8.649-2.76-8.649-7.729 0-2.791 2.392-4.17 5.49-4.17 1.565 0 4.693.612 4.693 2.79v1.319H8.772v-.736c0-1.135-1.656-1.564-2.668-1.564-2.147 0-3.435.736-3.435 2.239 0 3.465 8.65 2.668 8.65 7.79 0 2.575-2.332 4.324-5.4 4.324-4.018 0-5.919-2.7-5.919-2.7l1.196-1.44zM15.181 2.485c0-.43-.246-.675-.675-.675h-1.288V0h2.177c1.319 0 1.872.46 1.872 1.779v10.243h1.595c.582 0 1.318-.184 1.748-.736l3.956-5.152h2.546l-4.448 5.643c-.767.951-1.166 1.105-1.166 1.105v.061s.46.215.951 1.135l2.792 4.999c.276.52.582.675 1.41.675h.829v1.809h-1.442c-1.533 0-1.963-.245-2.668-1.533l-3.068-5.52c-.337-.614-1.073-.675-1.625-.675h-1.41v7.728H15.18V2.485zm15.887 23.644c1.35 0 2.27-1.104 2.852-2.515l.92-2.116-5.429-12.85c-.245-.552-.521-.705-1.073-.705h-.307v-1.81h.95c1.38 0 1.81.307 2.362 1.687l3.957 9.63c.306.766.552 1.656.552 1.656h.06s.216-.89.522-1.656l3.803-9.63c.522-1.38.982-1.686 2.393-1.686h.95v1.809h-.306c-.552 0-.859.153-1.073.705L35.545 24.78c-.798 1.962-2.362 3.22-4.417 3.22-2.147 0-3.344-1.503-3.344-1.503l.982-1.534c.001.032.982 1.166 2.302 1.166zM52.996 5.55c4.478 0 6.932 3.281 6.932 7.422 0 .46-.092 1.441-.092 1.441H49.039c.307 2.76 2.331 4.202 4.693 4.202 2.515 0 4.386-1.748 4.386-1.748l1.625 2.699s-2.392 2.361-6.287 2.361c-5.184 0-8.404-3.74-8.404-8.188 0-4.816 3.251-8.189 7.944-8.189zm2.944 6.164c-.061-1.87-1.349-3.158-2.944-3.158-1.994 0-3.405 1.196-3.834 3.158h6.778zm7.759-1.81c0-.46-.246-.674-.675-.674h-1.228V5.919h3.59c1.38 0 2.054.644 2.054 1.748v.46c0 .337-.061.675-.061.675h.061c.675-1.319 2.362-3.25 5.521-3.25 3.467 0 5.46 1.808 5.46 5.949v6.103c0 .43.245.675.675.675h1.227v3.281h-3.711c-1.473 0-2.087-.613-2.087-2.086v-7.176c0-1.902-.49-3.19-2.453-3.19-2.086 0-3.65 1.319-4.202 3.19-.215.644-.307 1.35-.307 2.085v7.177H63.7V9.906zM88.787 5.55c3.62 0 4.815 2.208 4.815 2.208h.062V7.36c0-.705.49-1.441 1.717-1.441H99v3.312h-1.196c-.399 0-.675.215-.675.613v10.764c0 5.367-4.17 7.391-8.25 7.391-1.963 0-4.05-.552-5.552-1.349l1.197-3.067s1.931 1.043 4.325 1.043c2.361 0 4.416-1.012 4.416-3.834v-.736c0-.368.03-.828.03-.828h-.06c-.92 1.319-2.271 2.025-4.356 2.025-4.478 0-7.024-3.62-7.024-7.913 0-4.294 2.423-7.789 6.932-7.789zm4.57 7.82c0-3.557-1.779-4.508-3.896-4.508-2.361 0-3.65 1.717-3.65 4.354 0 2.73 1.38 4.754 3.896 4.754 1.871 0 3.65-1.073 3.65-4.6z" fill="#141414"/></svg>